# xmcd CD database file
#
# Track frame offsets:
#	150
#	21522
#	43272
#	58947
#	76160
#	96368
#	117031
#	132032
#	149200
#	171712
#	191378
#	214002
#	232637
#	247048
#	264684
#	283153
#	301820
#	319309
#	340916
#
# Disc length: 4749 seconds
#
# Revision: 1
# Processed by: cddbd v1.5.2PL0 Copyright (c) Steve Scherf et al.
# Submitted via: CDex 1.79
#
DISCID=25128b13
DTITLE=Cosa Nuestra - Pregoneros de la Calle CD2
DYEAR=2010
DGENRE=Salsa
TTITLE0=Boranda
TTITLE1=La Boda de Ella
TTITLE2=Hoy
TTITLE3=Tambo
TTITLE4=Que Locura Enamorarme de Ti
TTITLE5=No me digan que es muy tarde
TTITLE6=Te hice mujer
TTITLE7=Enamorado de Ti
TTITLE8=Pero hiciste tuyo
TTITLE9=Yo me quedo
TTITLE10=Aparentemente
TTITLE11=Ganas
TTITLE12=Me enamore de Ti
TTITLE13=Bailamos otra Vez
TTITLE14=Usted abuso
TTITLE15=Dime
TTITLE16=El Eco de un Tambor
TTITLE17=Ven deborame otra Vez
TTITLE18=Sin tu amor
EXTD=YEAR: 2010
EXTT0=
EXTT1=
EXTT2=
EXTT3=
EXTT4=
EXTT5=
EXTT6=
EXTT7=
EXTT8=
EXTT9=
EXTT10=
EXTT11=
EXTT12=
EXTT13=
EXTT14=
EXTT15=
EXTT16=
EXTT17=
EXTT18=
PLAYORDER=
